<svg
    viewBox="0 0 81 102"
    fill="none"
    xmlns="http://www.w3.org/2000/svg"
    class="svg-logo"
>
    <mask
    id="mask0_1_1280"
    style="mask-type: luminance"
    maskUnits="userSpaceOnUse"
    x="0"
    y="-1"
    width="81"
    height="103"
    >
    <path
        d="M0 -0.000144958H80.0156V101.5H0V-0.000144958Z"
        fill="white"
    />
    </mask>
    <g mask="url(#mask0_1_1280)">
    <path
        d="M69.0078 68.2881L78.6968 62.6941V29.1318L69.0084 34.7252L69.0078 68.2881Z"
        stroke="white"
        stroke-width="2.32532"
        stroke-miterlimit="22.926"
        stroke-linecap="round"
        stroke-linejoin="round"
    />
    </g>
    <path
    d="M69.0105 34.7252L69.01 68.2881L59.3213 62.6941L59.3215 40.3192L49.6328 34.7258L49.6331 23.5378L69.0105 34.7252Z"
    stroke="white"
    stroke-width="2.32532"
    stroke-miterlimit="22.926"
    stroke-linecap="round"
    stroke-linejoin="round"
    />
    <mask
    id="mask1_1_1280"
    style="mask-type: luminance"
    maskUnits="userSpaceOnUse"
    x="0"
    y="-1"
    width="81"
    height="103"
    >
    <path
        d="M0 -0.000144958H80.0156V101.5H0V-0.000144958Z"
        fill="white"
    />
    </mask>
    <g mask="url(#mask1_1_1280)">
    <path
        d="M39.9419 17.9438L39.9416 51.5067L30.2529 45.913V23.5378L1.1875 6.75641L10.8765 1.16269L39.9419 17.9438Z"
        stroke="white"
        stroke-width="2.32532"
        stroke-miterlimit="22.926"
        stroke-linecap="round"
        stroke-linejoin="round"
    />
    </g>
    <path
    d="M39.939 17.9434V6.75565L30.25 12.3496L39.939 17.9434Z"
    stroke="white"
    stroke-width="2.32532"
    stroke-miterlimit="22.926"
    stroke-linecap="round"
    stroke-linejoin="round"
    />
    <mask
    id="mask2_1_1280"
    style="mask-type: luminance"
    maskUnits="userSpaceOnUse"
    x="0"
    y="-1"
    width="81"
    height="103"
    >
    <path
        d="M0 -0.000144958H80.0156V101.5H0V-0.000144958Z"
        fill="white"
    />
    </mask>
    <g mask="url(#mask2_1_1280)">
    <path
        d="M1.1875 62.6944L10.8762 68.2881L10.8765 23.5375L30.2537 34.7252V23.5381L1.18832 6.75662L1.1875 62.6944Z"
        stroke="white"
        stroke-width="2.32532"
        stroke-miterlimit="22.926"
        stroke-linecap="round"
        stroke-linejoin="round"
    />
    </g>
    <path
    d="M10.8753 23.5375L10.875 68.2881L20.5637 62.6944L20.564 29.1315L10.8753 23.5375Z"
    stroke="white"
    stroke-width="2.32532"
    stroke-miterlimit="22.926"
    stroke-linecap="round"
    stroke-linejoin="round"
    />
    <mask
    id="mask3_1_1280"
    style="mask-type: luminance"
    maskUnits="userSpaceOnUse"
    x="0"
    y="-1"
    width="81"
    height="103"
    >
    <path
        d="M0 -0.000144958H80.0156V101.5H0V-0.000144958Z"
        fill="white"
    />
    </mask>
    <g mask="url(#mask3_1_1280)">
    <path
        d="M69.009 23.5381V12.3506L78.6978 6.75693L69.009 1.16321L59.3203 6.75693V17.9444L69.009 23.5381Z"
        stroke="white"
        stroke-width="2.32532"
        stroke-miterlimit="22.926"
        stroke-linecap="round"
        stroke-linejoin="round"
    />
    <path
        d="M78.6965 6.75693V17.9444L69.0078 23.5381V12.3506L78.6965 6.75693Z"
        stroke="white"
        stroke-width="2.32532"
        stroke-miterlimit="22.926"
        stroke-linecap="round"
        stroke-linejoin="round"
    />
    <path
        d="M49.634 45.9131L39.9453 51.5068L39.9456 6.75627L78.7005 29.132L69.0118 34.7254L49.6343 23.538L49.634 45.9131Z"
        stroke="white"
        stroke-width="2.32532"
        stroke-miterlimit="22.926"
        stroke-linecap="round"
        stroke-linejoin="round"
    />
    <path
        fill-rule="evenodd"
        clip-rule="evenodd"
        d="M46.5755 79.4751V88.4969H48.433V82.1665H48.4581L50.6694 88.4969H52.1985L54.4098 82.1031H54.4349V88.4969H56.2924V79.4751H53.5L51.5034 85.6791H51.4782L49.3678 79.4751H46.5755ZM44.8695 85.0852V79.4751H42.886V85.0852C42.886 85.7592 42.7509 86.2541 42.4816 86.57C42.212 86.8861 41.7233 87.0438 41.0157 87.0438C40.6113 87.0438 40.2892 86.987 40.0491 86.8732C39.809 86.7594 39.6217 86.6121 39.4869 86.4311C39.3521 86.2498 39.2635 86.0414 39.2214 85.8054C39.1793 85.5694 39.1585 85.3296 39.1585 85.0852V79.4751H37.1744V85.0852C37.1744 86.3151 37.5094 87.2248 38.179 87.8146C38.8487 88.4042 39.7942 88.6992 41.0157 88.6992C42.2202 88.6992 43.1638 88.4023 43.846 87.8084C44.5285 87.2145 44.8695 86.3066 44.8695 85.0852ZM29.0243 79.4751V88.4969H35.8731V86.8292H31.0084V84.6176H35.3804V83.0762H31.0084V81.143H35.772V79.4751H29.0243ZM22.1758 85.5022H20.2552C20.2467 86.0581 20.3479 86.5385 20.5584 86.9427C20.769 87.3471 21.0533 87.6798 21.4113 87.941C21.7695 88.2021 22.1821 88.3938 22.6497 88.5157C23.1173 88.638 23.5996 88.6992 24.0964 88.6992C24.7114 88.6992 25.2525 88.6276 25.7201 88.4843C26.1877 88.341 26.5795 88.1411 26.8953 87.8841C27.2112 87.6271 27.4491 87.3219 27.6093 86.9681C27.7693 86.6143 27.8494 86.2309 27.8494 85.8183C27.8494 85.3127 27.7419 84.8979 27.5273 84.5736C27.3123 84.2493 27.0575 83.9901 26.7627 83.7965C26.4677 83.6029 26.1707 83.4615 25.8716 83.3732C25.5727 83.2846 25.3389 83.2236 25.1705 83.19C24.6061 83.0467 24.1492 82.9289 23.7995 82.8362C23.45 82.7435 23.176 82.6508 22.9781 82.5581C22.7801 82.4657 22.6475 82.3645 22.5802 82.2548C22.5127 82.1455 22.4791 82.0022 22.4791 81.8253C22.4791 81.6317 22.5214 81.4714 22.6054 81.3451C22.6899 81.2188 22.7971 81.1135 22.9278 81.0293C23.0582 80.9451 23.2037 80.886 23.3636 80.8521C23.5239 80.8187 23.6838 80.8018 23.8438 80.8018C24.088 80.8018 24.3133 80.8228 24.5197 80.8649C24.7262 80.9071 24.9094 80.9787 25.0693 81.0796C25.2296 81.1808 25.3578 81.3197 25.4546 81.4966C25.5517 81.6735 25.6086 81.8969 25.6252 82.1665H27.5461C27.5461 81.6442 27.4471 81.1996 27.2492 80.8332C27.0512 80.4668 26.7838 80.1658 26.4466 79.9301C26.1098 79.6941 25.7245 79.5235 25.2905 79.4182C24.8566 79.3129 24.4041 79.2601 23.9321 79.2601C23.528 79.2601 23.1235 79.3148 22.7191 79.4245C22.3147 79.5339 21.9527 79.7026 21.6325 79.9301C21.3123 80.1573 21.0533 80.4417 20.8554 80.7829C20.6574 81.1239 20.5584 81.5261 20.5584 81.9893C20.5584 82.4022 20.6364 82.7541 20.7922 83.0445C20.9481 83.3352 21.1523 83.5775 21.405 83.7713C21.6576 83.9649 21.9442 84.123 22.2641 84.2452C22.5843 84.3671 22.9127 84.4702 23.2499 84.5547C23.5783 84.6474 23.9028 84.7314 24.2228 84.8071C24.543 84.8831 24.8293 84.9714 25.0819 85.0726C25.3348 85.1738 25.5391 85.3001 25.695 85.4516C25.8505 85.6034 25.9285 85.8013 25.9285 86.0455C25.9285 86.273 25.8697 86.4606 25.7516 86.608C25.634 86.7553 25.4863 86.871 25.3094 86.9555C25.1325 87.0395 24.943 87.0963 24.7409 87.1261C24.5386 87.1554 24.3491 87.1702 24.1725 87.1702C23.911 87.1702 23.6584 87.1387 23.4142 87.0755C23.17 87.0124 22.957 86.9153 22.776 86.7849C22.595 86.6542 22.4495 86.4838 22.3401 86.273C22.2305 86.0625 22.1758 85.8054 22.1758 85.5022ZM19.118 85.0852V79.4751H17.1342V85.0852C17.1342 85.7592 16.9994 86.2541 16.7297 86.57C16.4601 86.8861 15.9718 87.0438 15.2641 87.0438C14.8597 87.0438 14.5376 86.987 14.2975 86.8732C14.0574 86.7594 13.8699 86.6121 13.7351 86.4311C13.6005 86.2498 13.5119 86.0414 13.4698 85.8054C13.4277 85.5694 13.4067 85.3296 13.4067 85.0852V79.4751H11.4229V85.0852C11.4229 86.3151 11.7576 87.2248 12.4275 87.8146C13.0971 88.4042 14.0427 88.6992 15.2641 88.6992C16.4686 88.6992 17.412 88.4023 18.0945 87.8084C18.7767 87.2145 19.118 86.3066 19.118 85.0852ZM0 79.4751V88.4969H1.85746V82.1665H1.88262L4.09391 88.4969H5.62298L7.83427 82.1031H7.85942V88.4969H9.71716V79.4751H6.92454L4.92789 85.6791H4.90274L2.79262 79.4751H0Z"
        fill="white"
    />
    <path
        fill-rule="evenodd"
        clip-rule="evenodd"
        d="M74.3439 98.3032H72.4232C72.4148 98.8591 72.5159 99.3396 72.7265 99.7437C72.937 100.148 73.2214 100.481 73.5793 100.742C73.9375 101.003 74.3502 101.195 74.8177 101.317C75.2853 101.439 75.7676 101.5 76.2645 101.5C76.8794 101.5 77.4206 101.428 77.8882 101.285C78.3557 101.142 78.7476 100.942 79.0634 100.685C79.3792 100.428 79.6174 100.123 79.7771 99.7689C79.9373 99.4153 80.0174 99.0319 80.0174 98.6193C80.0174 98.1137 79.91 97.6989 79.695 97.3746C79.4804 97.0501 79.2255 96.7911 78.9308 96.5973C78.6357 96.4037 78.3388 96.2626 78.0399 96.1742C77.7408 96.0857 77.507 96.0247 77.3386 95.9908C76.7742 95.8478 76.3173 95.7296 75.9675 95.6369C75.6181 95.5442 75.3441 95.4518 75.1464 95.3591C74.9482 95.2664 74.8155 95.1653 74.7483 95.0559C74.6807 94.9462 74.6471 94.8032 74.6471 94.6263C74.6471 94.4324 74.6892 94.2725 74.7734 94.1459C74.8579 94.0198 74.9651 93.9143 75.0958 93.8301C75.2262 93.7458 75.3717 93.6868 75.5317 93.6532C75.6916 93.6195 75.8519 93.6028 76.0118 93.6028C76.256 93.6028 76.4813 93.6239 76.6878 93.6657C76.8942 93.7078 77.0774 93.7795 77.2374 93.8807C77.3976 93.9818 77.5259 94.1207 77.6229 94.2976C77.7197 94.4746 77.7766 94.6977 77.7933 94.9673H79.7142C79.7142 94.445 79.6152 94.0007 79.417 93.6343C79.2193 93.2679 78.9518 92.9668 78.6147 92.7308C78.2778 92.4949 77.8925 92.3242 77.4586 92.219C77.0249 92.1137 76.5721 92.0612 76.1002 92.0612C75.696 92.0612 75.2913 92.1159 74.8872 92.2253C74.483 92.3349 74.1207 92.5033 73.8005 92.7308C73.4803 92.9583 73.2214 93.2427 73.0234 93.5837C72.8255 93.9249 72.7265 94.3272 72.7265 94.7904C72.7265 95.2033 72.8044 95.5549 72.9603 95.8456C73.1161 96.1362 73.3204 96.3782 73.573 96.5721C73.8257 96.766 74.112 96.9237 74.4325 97.046C74.7524 97.1682 75.0811 97.2713 75.4179 97.3555C75.7463 97.4482 76.0709 97.5324 76.3908 97.6082C76.711 97.6842 76.9973 97.7725 77.2502 97.8737C77.5029 97.9748 77.7071 98.1009 77.863 98.2527C78.0186 98.4044 78.0968 98.6024 78.0968 98.8466C78.0968 99.0741 78.0377 99.2614 77.9199 99.4087C77.802 99.5561 77.6544 99.6721 77.4775 99.7563C77.3005 99.8405 77.1111 99.8974 76.909 99.9269C76.7066 99.9564 76.5171 99.9712 76.3402 99.9712C76.0791 99.9712 75.8264 99.9395 75.5823 99.8763C75.3378 99.8132 75.1254 99.7164 74.9441 99.5859C74.763 99.4552 74.6176 99.2846 74.5082 99.0741C74.3986 98.8632 74.3439 98.6065 74.3439 98.3032ZM61.9076 92.2758V101.298H63.7651V95.258H63.7902L67.5432 101.298H69.527V92.2758H67.6695V98.3284H67.6441L63.8788 92.2758H61.9076ZM49.9641 96.8248C49.9641 97.4818 50.0653 98.0949 50.2671 98.6634C50.4694 99.2321 50.7601 99.7268 51.1391 100.148C51.5181 100.569 51.9835 100.9 52.5353 101.14C53.0871 101.38 53.7083 101.5 54.399 101.5C55.0982 101.5 55.7216 101.38 56.2693 101.14C56.8168 100.9 57.2802 100.569 57.6592 100.148C58.0385 99.7268 58.3289 99.2321 58.5312 98.6634C58.7333 98.0949 58.8345 97.4818 58.8345 96.8248C58.8345 96.151 58.7333 95.5254 58.5312 94.9484C58.3289 94.3712 58.0385 93.8681 57.6592 93.4385C57.2802 93.0087 56.8168 92.6721 56.2693 92.4276C55.7216 92.1834 55.0982 92.0612 54.399 92.0612C53.7083 92.0612 53.0871 92.1834 52.5353 92.4276C51.9835 92.6721 51.5181 93.0087 51.1391 93.4385C50.7601 93.8681 50.4694 94.3712 50.2671 94.9484C50.0653 95.5254 49.9641 96.151 49.9641 96.8248ZM51.9479 96.8248C51.9479 96.4288 51.992 96.0457 52.0805 95.675C52.1689 95.3044 52.31 94.9736 52.5038 94.6832C52.6977 94.3925 52.9504 94.1607 53.2621 93.9881C53.5735 93.8153 53.9528 93.7289 54.399 93.7289C54.8458 93.7289 55.2248 93.8153 55.5363 93.9881C55.8482 94.1607 56.1009 94.3925 56.2945 94.6832C56.4884 94.9736 56.6295 95.3044 56.7178 95.675C56.8064 96.0457 56.8507 96.4288 56.8507 96.8248C56.8507 97.204 56.8064 97.5723 56.7178 97.9305C56.6295 98.2885 56.4884 98.6106 56.2945 98.8969C56.1009 99.1834 55.8482 99.4131 55.5363 99.5859C55.2248 99.7585 54.8458 99.8446 54.399 99.8446C53.9528 99.8446 53.5735 99.7585 53.2621 99.5859C52.9504 99.4131 52.6977 99.1834 52.5038 98.8969C52.31 98.6106 52.1689 98.2885 52.0805 97.9305C51.992 97.5723 51.9479 97.204 51.9479 96.8248ZM44.9069 101.298H46.8907V92.2758H44.9069V101.298ZM36.3371 98.3032H34.4165C34.408 98.8591 34.5092 99.3396 34.7197 99.7437C34.9302 100.148 35.2146 100.481 35.5728 100.742C35.9308 101.003 36.3436 101.195 36.811 101.317C37.2785 101.439 37.7609 101.5 38.2577 101.5C38.8727 101.5 39.4141 101.428 39.8814 101.285C40.349 101.142 40.7408 100.942 41.0566 100.685C41.3724 100.428 41.6103 100.123 41.7706 99.7689C41.9305 99.4153 42.0106 99.0319 42.0106 98.6193C42.0106 98.1137 41.9032 97.6989 41.6885 97.3746C41.4736 97.0501 41.2188 96.7911 40.924 96.5973C40.6292 96.4037 40.332 96.2626 40.0329 96.1742C39.734 96.0857 39.5002 96.0247 39.3318 95.9908C38.7674 95.8478 38.3105 95.7296 37.9608 95.6369C37.6113 95.5442 37.3376 95.4518 37.1396 95.3591C36.9417 95.2664 36.8088 95.1653 36.7415 95.0559C36.674 94.9462 36.6403 94.8032 36.6403 94.6263C36.6403 94.4324 36.6827 94.2725 36.7667 94.1459C36.8511 94.0198 36.9583 93.9143 37.089 93.8301C37.2195 93.7458 37.3649 93.6868 37.5249 93.6532C37.6851 93.6195 37.8451 93.6028 38.0051 93.6028C38.2492 93.6028 38.4745 93.6239 38.681 93.6657C38.8874 93.7078 39.0706 93.7795 39.2309 93.8807C39.3908 93.9818 39.5191 94.1207 39.6159 94.2976C39.7129 94.4746 39.7698 94.6977 39.7865 94.9673H41.7074C41.7074 94.445 41.6084 94.0007 41.4104 93.6343C41.2125 93.2679 40.9451 92.9668 40.6079 92.7308C40.271 92.4949 39.8858 92.3242 39.4518 92.219C39.0181 92.1137 38.5653 92.0612 38.0934 92.0612C37.6892 92.0612 37.2848 92.1159 36.8804 92.2253C36.4763 92.3349 36.114 92.5033 35.7938 92.7308C35.4736 92.9583 35.2146 93.2427 35.0167 93.5837C34.8187 93.9249 34.7197 94.3272 34.7197 94.7904C34.7197 95.2033 34.7976 95.5549 34.9535 95.8456C35.1093 96.1362 35.3136 96.3782 35.5665 96.5721C35.8192 96.766 36.1055 96.9237 36.4254 97.046C36.7456 97.1682 37.074 97.2713 37.4111 97.3555C37.7395 97.4482 38.0641 97.5324 38.384 97.6082C38.7042 97.6842 38.9905 97.7725 39.2435 97.8737C39.4961 97.9748 39.7004 98.1009 39.8562 98.2527C40.0121 98.4044 40.0897 98.6024 40.0897 98.8466C40.0897 99.0741 40.031 99.2614 39.9131 99.4087C39.7953 99.5561 39.6479 99.6721 39.471 99.7563C39.2938 99.8405 39.1043 99.8974 38.9022 99.9269C38.7001 99.9564 38.5104 99.9712 38.3337 99.9712C38.0723 99.9712 37.8199 99.9395 37.5755 99.8763C37.3313 99.8132 37.1186 99.7164 36.9373 99.5859C36.7563 99.4552 36.6108 99.2846 36.5014 99.0741C36.3918 98.8632 36.3371 98.6065 36.3371 98.3032ZM31.5579 97.8862V92.2758H29.5744V97.8862C29.5744 98.56 29.4393 99.0552 29.17 99.3707C28.9004 99.6868 28.4118 99.8446 27.7044 99.8446C27.2997 99.8446 26.9776 99.7877 26.7375 99.6743C26.4974 99.5605 26.3098 99.4131 26.1753 99.2321C26.0405 99.0508 25.9519 98.8422 25.9101 98.6065C25.868 98.3705 25.8469 98.1304 25.8469 97.8862V92.2758H23.8628V97.8862C23.8628 99.1162 24.1978 100.026 24.8675 100.615C25.5371 101.205 26.4827 101.5 27.7044 101.5C28.9089 101.5 29.8522 101.203 30.5347 100.609C31.217 100.015 31.5579 99.1077 31.5579 97.8862ZM14.6865 92.2758V101.298H21.0678V99.63H16.6703V92.2758H14.6865ZM5.47223 92.2758V101.298H11.8535V99.63H7.45602V92.2758H5.47223ZM0.0234375 101.298H2.00722V92.2758H0.0234375V101.298Z"
        fill="white"
    />
    <path
        fill-rule="evenodd"
        clip-rule="evenodd"
        d="M73.5194 79.4751V88.4969H75.5031V84.7694H79.2812V83.228H75.5031V81.143H79.8626V79.4751H73.5194ZM63.2969 84.024C63.2969 84.681 63.398 85.2938 63.6001 85.8623C63.8025 86.4311 64.0931 86.926 64.4721 87.3471C64.8511 87.7684 65.3168 88.099 65.8683 88.3391C66.4201 88.5789 67.0413 88.6992 67.732 88.6992C68.4312 88.6992 69.0547 88.5789 69.6021 88.3391C70.1498 88.099 70.6133 87.7684 70.9922 87.3471C71.3712 86.926 71.6619 86.4311 71.8642 85.8623C72.0663 85.2938 72.1675 84.681 72.1675 84.024C72.1675 83.35 72.0663 82.7243 71.8642 82.1474C71.6619 81.5704 71.3712 81.067 70.9922 80.6374C70.6133 80.2079 70.1498 79.871 69.6021 79.6265C69.0547 79.3824 68.4312 79.2601 67.732 79.2601C67.0413 79.2601 66.4201 79.3824 65.8683 79.6265C65.3168 79.871 64.8511 80.2079 64.4721 80.6374C64.0931 81.067 63.8025 81.5704 63.6001 82.1474C63.398 82.7243 63.2969 83.35 63.2969 84.024ZM65.2809 84.024C65.2809 83.628 65.325 83.2447 65.4136 82.8739C65.5022 82.5034 65.643 82.1728 65.8368 81.8821C66.0307 81.5915 66.2834 81.3599 66.5948 81.1871C66.9068 81.0145 67.2858 80.9281 67.732 80.9281C68.1786 80.9281 68.5578 81.0145 68.8693 81.1871C69.181 81.3599 69.4336 81.5915 69.6278 81.8821C69.8214 82.1728 69.9625 82.5034 70.0508 82.8739C70.1394 83.2447 70.1834 83.628 70.1834 84.024C70.1834 84.403 70.1394 84.7716 70.0508 85.1295C69.9625 85.4874 69.8214 85.8098 69.6278 86.0961C69.4336 86.3827 69.181 86.6121 68.8693 86.7849C68.5578 86.9577 68.1786 87.0438 67.732 87.0438C67.2858 87.0438 66.9068 86.9577 66.5948 86.7849C66.2834 86.6121 66.0307 86.3827 65.8368 86.0961C65.643 85.8098 65.5022 85.4874 65.4136 85.1295C65.325 84.7716 65.2809 84.403 65.2809 84.024Z"
        fill="white"
    />
    </g>
</svg>